<svg width="100%" height="100%" viewBox="0 0 130 24" fill="none" xmlns="http://www.w3.org/2000/svg">
<path d="M41.2977 7.30335C40.8737 6.41714 40.2892 5.73187 39.5415 5.24755C38.7939 4.76322 37.9357 4.52106 36.9697 4.52106C36.3646 4.52106 35.7351 4.67563 35.0774 4.98606C34.4209 5.29649 33.9109 5.76278 33.5486 6.38365L33.0952 4.83922H30.1045V19.7657H33.5486V14.4948C33.9109 15.1157 34.4209 15.5845 35.0774 15.9027C35.7351 16.2209 36.3646 16.3793 36.9697 16.3793C37.9357 16.3793 38.7939 16.1449 39.5415 15.676C40.2892 15.2058 40.8737 14.5283 41.2977 13.6421C41.7203 12.7559 41.931 11.6996 41.931 10.4734C41.931 9.24709 41.7203 8.18956 41.2977 7.30335ZM37.6158 12.8808C37.1238 13.427 36.547 13.6988 35.8816 13.6988C35.2161 13.6988 34.6162 13.4373 34.1255 12.9156C33.6347 12.3926 33.3893 11.5567 33.3893 10.4051C33.3893 9.25353 33.6347 8.41369 34.1255 7.92808C34.6162 7.44376 35.202 7.20159 35.8816 7.20159C36.5611 7.20159 37.1238 7.48884 37.6158 8.06462C38.1066 8.6404 38.352 9.44288 38.352 10.4734C38.352 11.5038 38.1066 12.336 37.6158 12.8808Z" fill="#3A0CA3"></path>
<path d="M54.5527 7.80313C54.0992 6.78167 53.4299 5.9779 52.5474 5.39568C51.6635 4.81217 50.6024 4.52106 49.364 4.52106C48.2759 4.52106 47.2752 4.76322 46.3618 5.24755C45.4471 5.73187 44.7149 6.41456 44.1637 7.29176C43.6113 8.17153 43.3364 9.20845 43.3364 10.4051C43.3364 11.6017 43.5972 12.7147 44.1175 13.6086C44.6391 14.5025 45.3636 15.1865 46.2937 15.6644C47.2225 16.141 48.29 16.3793 49.4989 16.3793C50.42 16.3793 51.3231 16.1758 52.2069 15.7662C53.0908 15.3578 53.8269 14.7215 54.4165 13.8585L51.6751 12.8589C51.4631 13.1011 51.1651 13.302 50.7797 13.4605C50.3943 13.6202 49.937 13.6988 49.409 13.6988C48.7744 13.6988 48.1963 13.503 47.676 13.1088C47.1544 12.7147 46.8628 12.1234 46.8024 11.3364H55.118C55.1938 10.0032 55.0049 8.82589 54.5527 7.80313ZM46.8024 9.29218C46.909 8.51932 47.2148 7.95899 47.7209 7.60992C48.2271 7.26213 48.8039 7.08824 49.4539 7.08824C50.104 7.08824 50.6923 7.27373 51.1767 7.6447C51.6597 8.01567 51.9089 8.5644 51.9243 9.29218H46.8024Z" fill="#3A0CA3"></path>
<path d="M67.5354 7.07665C66.9766 6.20589 66.243 5.56184 65.3374 5.14578C64.4317 4.72844 63.4643 4.52106 62.4366 4.52106C61.4089 4.52106 60.421 4.72844 59.514 5.14578C58.6083 5.56184 57.8748 6.20589 57.316 7.07665C56.7572 7.9474 56.4784 9.06418 56.4784 10.427C56.4784 11.7898 56.7572 12.8924 57.316 13.7786C57.8748 14.6648 58.6083 15.3205 59.514 15.7443C60.421 16.1681 61.3948 16.3793 62.4366 16.3793C63.4785 16.3793 64.4317 16.1681 65.3374 15.7443C66.243 15.3205 66.9766 14.6648 67.5354 13.7786C68.0942 12.8924 68.3743 11.7756 68.3743 10.427C68.3743 9.07835 68.0942 7.9474 67.5354 7.07665ZM64.1709 12.9491C63.7097 13.4489 63.1316 13.6988 62.4366 13.6988C61.7416 13.6988 61.1609 13.4489 60.692 12.9491C60.2244 12.4493 59.9906 11.6095 59.9906 10.427C59.9906 9.24452 60.2283 8.39437 60.7036 7.91649C61.1802 7.43989 61.757 7.20159 62.4366 7.20159C63.1162 7.20159 63.6724 7.43989 64.1478 7.91649C64.6231 8.39437 64.862 9.23164 64.862 10.427C64.862 11.6223 64.6308 12.4493 64.1709 12.9491Z" fill="#3A0CA3"></path>
<path d="M81.5613 7.30335C81.1373 6.41714 80.5528 5.73187 79.8052 5.24755C79.0575 4.76322 78.1993 4.52106 77.2333 4.52106C76.6282 4.52106 75.9974 4.67563 75.341 4.98606C74.6845 5.29649 74.1745 5.76278 73.811 6.38365L73.3588 4.83922H70.3668V19.7657H73.811V14.4948C74.1745 15.1157 74.6845 15.5845 75.341 15.9027C75.9974 16.2209 76.6282 16.3793 77.2333 16.3793C78.1993 16.3793 79.0575 16.1449 79.8052 15.676C80.5528 15.2058 81.1373 14.5283 81.5613 13.6421C81.9839 12.7559 82.1946 11.6996 82.1946 10.4734C82.1946 9.24709 81.9839 8.18956 81.5613 7.30335ZM77.8782 12.8808C77.3874 13.427 76.8093 13.6988 76.1452 13.6988C75.481 13.6988 74.8798 13.4373 74.3891 12.9156C73.8983 12.3926 73.653 11.5567 73.653 10.4051C73.653 9.25353 73.8983 8.41369 74.3891 7.92808C74.8798 7.44376 75.4656 7.20159 76.1452 7.20159C76.8248 7.20159 77.3874 7.48884 77.8782 8.06462C78.3689 8.6404 78.6156 9.44288 78.6156 10.4734C78.6156 11.5038 78.3689 12.336 77.8782 12.8808Z" fill="#3A0CA3"></path>
<path d="M89.1276 13.2907C88.5534 13.2907 88.1615 13.2109 87.9496 13.0524C87.7376 12.8927 87.6323 12.5488 87.6323 12.0181V0.931396H84.1881V12.9275C84.1881 13.806 84.305 14.4758 84.5401 14.9382C84.7739 15.3993 85.1632 15.7098 85.7066 15.8695C86.25 16.0279 86.9835 16.1078 87.9046 16.1078H90.1026V13.2907H89.1276Z" fill="#3A0CA3"></path>
<path d="M102.246 7.80313C101.794 6.78167 101.125 5.9779 100.242 5.39568C99.3586 4.81217 98.2962 4.52106 97.0591 4.52106C95.971 4.52106 94.9702 4.76322 94.0556 5.24755C93.1422 5.73187 92.4099 6.41456 91.8588 7.29176C91.3064 8.17153 91.0315 9.20845 91.0315 10.4051C91.0315 11.6017 91.2923 12.7147 91.8126 13.6086C92.3341 14.5025 93.0587 15.1865 93.9888 15.6644C94.9176 16.141 95.9851 16.3793 97.194 16.3793C98.1151 16.3793 99.0182 16.1758 99.902 15.7662C100.786 15.3578 101.522 14.7215 102.112 13.8585L99.3702 12.8589C99.1582 13.1011 98.8602 13.302 98.4748 13.4605C98.0894 13.6202 97.632 13.6988 97.104 13.6988C96.4694 13.6988 95.8913 13.503 95.3698 13.1088C94.8495 12.7147 94.5579 12.1234 94.4975 11.3364H102.813C102.889 10.0032 102.7 8.82589 102.246 7.80313ZM94.4975 9.29218C94.6041 8.51932 94.9099 7.95899 95.416 7.60992C95.9222 7.26213 96.499 7.08824 97.149 7.08824C97.799 7.08824 98.3874 7.27373 98.8717 7.6447C99.3547 8.01567 99.604 8.5644 99.6194 9.29218H94.4975Z" fill="#3A0CA3"></path>
<path d="M112.715 3.74847V0.931396H104.921V3.74847H107.051V13.2907H104.921V16.1078H112.715V13.2907H110.63V3.74847H112.715Z" fill="#3A0CA3"></path>
<path d="M124.384 8.31479L129.619 0.931396H125.336L122.232 5.2929L119.15 0.931396H114.867L120.102 8.31479L114.551 16.1078H118.856L122.232 11.3135L125.63 16.1078H129.935L124.384 8.31479Z" fill="#3A0CA3"></path>
<path d="M21.8134 2.94202V16.5379C21.8134 18.1622 20.5005 19.4799 18.8792 19.4799H7.35977L0.908248 23.8736C0.404665 24.1931 0 23.8749 0 23.2773V2.94202C0 1.31773 1.31291 0 2.93414 0H18.8805C20.5005 0 21.8147 1.31644 21.8147 2.94202H21.8134Z" fill="#F72585"></path>
<path d="M10.1114 6.4935V3.29773C6.88689 3.6906 4.38953 6.44585 4.38953 9.7846C4.38953 13.1234 6.88689 15.8773 10.1114 16.2702V13.0757C8.63016 12.7176 7.52921 11.3806 7.52921 9.7846C7.52921 8.18864 8.63016 6.8516 10.1114 6.4935ZM17.1024 7.75327L14.1991 9.03235C14.2556 9.27451 14.2839 9.52569 14.2839 9.7846C14.2839 11.3793 13.1842 12.7176 11.703 13.0757V16.2702C14.9275 15.8773 17.4249 13.1234 17.4249 9.7846C17.4249 9.07486 17.3118 8.39216 17.1024 7.75327ZM11.703 3.29773V6.4935C12.4122 6.66482 13.0339 7.06027 13.4887 7.60256L16.4267 6.30802C15.4067 4.68372 13.693 3.53989 11.703 3.29773Z" fill="#3A0CA3"></path>
</svg>